<?xml version="1.0" standalone="no"?>
<!DOCTYPE svg PUBLIC "-//W3C//DTD SVG 20010904//EN"
 "http://www.w3.org/TR/2001/REC-SVG-20010904/DTD/svg10.dtd">
<svg version="1.0" xmlns="http://www.w3.org/2000/svg"
 width="779.000000pt" height="1656.000000pt" viewBox="0 0 779.000000 1656.000000"
 preserveAspectRatio="xMidYMid meet">

<g transform="translate(0.000000,1656.000000) scale(0.100000,-0.100000)"
fill="#000000" stroke="none">
<path d="M1145 16271 c-35 -9 -60 -21 -120 -62 -24 -16 -106 -59 -181 -95
-228 -108 -309 -172 -382 -304 -65 -118 -93 -263 -93 -490 0 -178 20 -296 67
-410 75 -178 79 -193 66 -237 -6 -21 -40 -84 -75 -138 -128 -199 -224 -374
-251 -457 -50 -148 -45 -301 11 -413 60 -118 194 -283 278 -340 l57 -40 -43
-35 c-137 -109 -198 -231 -199 -392 0 -74 14 -103 66 -133 23 -14 52 -41 64
-60 l22 -35 -32 -142 c-18 -79 -45 -189 -61 -246 -16 -57 -34 -133 -40 -170
-16 -99 -24 -722 -10 -840 38 -328 208 -646 385 -723 66 -29 67 -16 -20 -190
-87 -175 -257 -593 -294 -725 -61 -215 -60 -211 -71 -973 -9 -626 -8 -713 6
-780 26 -128 93 -248 216 -391 32 -38 59 -71 59 -73 0 -3 -18 -24 -41 -48 -57
-62 -143 -194 -183 -280 -76 -165 -112 -328 -103 -469 6 -106 26 -160 105
-279 45 -68 62 -102 62 -127 0 -18 -25 -106 -55 -196 -62 -188 -136 -474 -165
-645 -26 -147 -44 -515 -37 -758 6 -230 20 -287 128 -502 70 -139 82 -171 86
-226 7 -85 -4 -114 -97 -257 -44 -67 -88 -145 -99 -174 -32 -86 -44 -203 -38
-365 6 -163 17 -218 88 -474 59 -209 139 -598 139 -676 0 -49 -4 -58 -40 -97
-34 -37 -40 -50 -40 -88 0 -24 -6 -77 -14 -118 -64 -337 8 -647 196 -837 64
-64 173 -138 286 -193 78 -38 87 -40 144 -34 l60 7 86 -83 c69 -66 101 -89
153 -110 119 -48 223 -62 439 -62 236 1 352 17 525 75 134 44 488 213 582 277
65 44 148 129 210 212 22 31 121 137 220 237 133 134 190 184 218 193 63 21
200 7 393 -39 96 -23 222 -46 285 -52 189 -17 407 7 579 65 103 34 430 198
496 248 100 74 171 192 298 488 52 121 60 152 86 304 31 192 40 226 74 278 29
46 61 63 183 98 218 62 371 150 507 292 102 106 133 149 295 404 148 234 215
361 252 479 45 145 52 193 51 360 -1 141 -5 182 -37 343 -20 100 -50 226 -67
280 -38 115 -36 151 10 267 37 93 41 157 16 273 -22 99 -21 169 3 208 10 16
61 68 112 115 186 167 384 373 442 460 158 238 211 536 148 828 -43 196 -162
440 -302 618 -27 35 -49 66 -49 70 1 5 37 31 81 58 44 28 109 80 143 116 107
113 144 223 133 397 -14 218 -135 571 -257 753 -88 130 -171 229 -215 254
l-44 26 6 237 c7 273 0 318 -80 505 -68 162 -139 253 -284 366 -28 22 -54 49
-58 60 -3 11 13 100 35 198 69 294 72 320 77 577 7 339 -18 533 -96 730 -108
270 -224 417 -543 684 -86 73 -171 152 -188 177 -86 125 -120 251 -145 540
-21 243 -32 322 -61 440 -50 203 -148 346 -279 413 -89 44 -126 52 -277 61
-148 9 -182 20 -221 73 -30 40 -26 120 13 263 30 110 32 128 27 220 -8 131
-36 236 -101 370 -147 304 -405 544 -690 641 -283 97 -665 60 -906 -87 -120
-72 -200 -109 -238 -109 -50 0 -88 25 -192 124 -69 67 -117 103 -175 133 -189
97 -362 153 -539 172 -107 12 -134 23 -218 88 -105 80 -170 98 -422 118 -196
16 -255 17 -301 6z m365 -122 c287 -46 509 -353 565 -781 19 -143 33 -181 84
-228 97 -89 42 -244 -113 -320 -83 -41 -151 -47 -265 -25 -124 24 -181 11
-181 -41 0 -13 9 -28 20 -34 11 -6 98 -22 193 -36 294 -44 430 -23 526 81 72
78 111 232 92 361 -17 117 -51 169 -138 213 -58 29 -70 51 -83 156 -14 108
-54 234 -110 346 -23 44 -39 83 -36 86 9 9 184 -37 286 -75 297 -109 495 -277
588 -499 51 -121 52 -286 2 -590 -42 -256 -37 -323 25 -389 39 -41 76 -44 110
-10 30 31 36 90 33 366 -3 234 10 338 44 372 16 16 27 18 61 12 151 -26 361
28 317 81 -31 37 -67 46 -183 44 -68 -1 -128 3 -154 11 -39 12 -45 19 -87 102
-51 98 -54 116 -28 125 9 3 55 31 101 61 152 99 376 181 555 202 298 35 546
-68 753 -312 136 -160 255 -364 286 -491 21 -82 22 -219 2 -312 -15 -71 -83
-295 -89 -295 -2 0 -82 40 -177 89 -260 134 -489 221 -580 221 -69 0 -105 -40
-75 -85 17 -25 75 -47 176 -66 72 -13 282 -113 317 -151 13 -13 37 -76 58
-148 58 -197 88 -228 190 -196 30 9 57 21 60 26 35 57 92 -142 119 -414 8 -80
19 -154 25 -165 27 -50 97 -26 114 39 5 19 4 109 -2 213 -11 173 -13 184 -56
314 -25 74 -42 139 -39 145 20 32 322 -30 439 -90 97 -50 189 -144 238 -244
65 -134 77 -207 88 -523 7 -207 6 -287 -2 -308 -12 -28 -76 -79 -116 -91 -22
-7 -43 -45 -94 -173 -26 -65 -28 -80 -19 -109 20 -60 62 -57 218 17 175 83
217 70 436 -138 260 -248 328 -330 412 -496 87 -172 127 -326 145 -560 13
-167 1 -357 -32 -522 -38 -193 -149 -483 -230 -602 -18 -26 -63 -78 -101 -114
-73 -71 -87 -108 -49 -129 64 -34 164 22 251 139 63 84 78 90 133 58 72 -43
179 -165 226 -260 77 -156 112 -351 91 -517 -19 -159 -77 -308 -158 -408 -39
-49 -127 -122 -147 -122 -8 0 -18 22 -25 53 -22 95 -92 301 -131 385 -83 181
-240 383 -325 418 -43 18 -140 22 -156 6 -19 -19 5 -56 111 -166 122 -127 151
-165 213 -291 153 -305 184 -576 97 -840 -33 -100 -103 -224 -158 -281 -20
-20 -70 -62 -111 -92 -92 -67 -147 -118 -166 -154 -37 -71 0 -115 90 -105 121
12 197 79 353 312 132 198 139 213 163 352 33 185 29 178 124 222 73 34 89 46
147 117 36 43 79 98 94 122 44 67 74 66 164 -6 172 -139 351 -561 327 -772
-19 -163 -127 -315 -315 -440 -114 -76 -344 -187 -435 -210 -98 -25 -116 -25
-263 0 -122 21 -180 20 -220 -6 -32 -20 -42 -45 -53 -129 -5 -42 -18 -95 -28
-118 -31 -70 -287 -439 -348 -501 -67 -69 -153 -127 -233 -157 -31 -11 -132
-41 -224 -65 -287 -74 -418 -158 -309 -196 60 -21 260 -16 364 10 253 62 394
178 677 557 177 236 328 402 395 435 33 15 62 20 129 20 112 0 168 13 302 67
87 36 125 46 185 50 41 2 80 0 86 -4 21 -16 157 -228 184 -287 36 -79 85 -238
106 -346 22 -109 15 -310 -14 -420 -59 -222 -143 -370 -297 -525 -120 -120
-177 -158 -338 -226 -88 -38 -101 -46 -114 -77 -17 -40 -12 -101 18 -251 47
-230 2 -389 -149 -533 -108 -103 -197 -133 -422 -142 -80 -3 -158 -10 -175
-14 -69 -19 -26 -90 67 -113 112 -26 400 11 602 78 l85 29 15 -35 c78 -196
104 -434 71 -641 -33 -201 -144 -461 -296 -695 -85 -131 -98 -147 -197 -248
-219 -223 -517 -337 -885 -338 -412 -2 -635 91 -962 402 -146 138 -215 186
-250 173 -23 -9 -19 -87 6 -137 27 -54 156 -179 279 -270 252 -187 285 -226
278 -326 -5 -76 -45 -156 -115 -232 -116 -124 -191 -149 -483 -158 -230 -8
-259 -14 -279 -59 -19 -39 2 -77 58 -104 44 -22 57 -23 251 -22 315 1 430 34
561 164 103 102 149 222 149 394 l0 88 28 -7 c106 -28 258 -47 410 -52 97 -3
172 -10 172 -15 0 -26 -112 -463 -136 -528 -84 -236 -246 -446 -420 -547 -325
-189 -841 -245 -1264 -138 -254 64 -514 192 -653 323 -31 30 -28 34 33 51 106
30 209 113 300 243 61 87 79 134 120 318 17 80 43 168 56 196 13 28 24 60 24
71 0 10 6 28 14 38 13 18 15 18 52 2 30 -13 71 -18 179 -20 136 -2 141 -1 187
26 69 40 135 130 123 167 -8 25 -48 26 -142 4 -83 -20 -162 -14 -296 20 -137
35 -216 77 -327 175 -114 100 -148 118 -201 102 -74 -22 -66 -69 41 -256 137
-239 171 -377 136 -538 -29 -130 -85 -215 -201 -302 -86 -64 -189 -128 -232
-143 -31 -10 -36 -8 -92 39 -78 65 -121 130 -121 183 0 22 15 90 32 151 28 93
33 126 33 215 0 93 -3 110 -24 148 l-25 42 -28 -27 c-41 -40 -66 -117 -93
-295 -29 -184 -59 -267 -135 -370 -75 -102 -151 -157 -366 -263 -208 -102
-254 -133 -254 -171 0 -38 32 -47 139 -42 151 8 294 69 448 191 48 37 143 136
159 165 1 2 31 -19 66 -46 36 -27 116 -80 179 -117 63 -38 152 -97 199 -132
47 -34 142 -95 212 -135 l126 -72 -71 -49 c-104 -71 -136 -98 -323 -278 -323
-309 -418 -367 -764 -472 -180 -55 -295 -70 -473 -64 -126 4 -167 9 -240 31
-200 60 -304 137 -368 275 -68 145 -74 156 -89 156 -8 0 -26 -20 -39 -45 -19
-34 -26 -63 -29 -127 -3 -46 -6 -83 -9 -83 -11 0 -176 132 -242 195 -95 90
-160 189 -197 301 -27 83 -29 99 -28 239 0 135 5 171 42 358 23 114 42 225 42
247 0 22 5 40 10 40 6 0 77 -45 160 -100 165 -111 294 -178 393 -205 84 -23
117 -16 117 25 0 58 -72 115 -305 240 -130 70 -219 135 -320 231 -105 101
-137 154 -155 258 -6 34 -10 65 -8 67 2 2 46 -10 98 -27 269 -87 459 -119 700
-119 261 0 446 32 585 103 192 96 363 270 446 452 34 76 69 197 69 241 0 17 2
33 5 36 3 3 38 -1 78 -9 43 -9 113 -13 172 -11 85 3 109 8 157 31 125 61 240
234 278 419 15 71 20 135 20 266 0 94 2 172 5 172 3 0 41 -22 84 -49 174 -109
344 -182 514 -218 116 -25 621 -25 812 1 527 69 767 202 980 541 157 250 365
748 410 980 25 131 17 341 -18 448 l-25 77 22 0 c83 1 267 64 364 126 212 135
342 304 381 496 11 53 24 106 31 118 19 35 70 50 172 50 286 1 396 77 360 249
-22 106 -54 113 -208 46 -138 -61 -186 -66 -253 -30 -53 29 -93 79 -145 182
-34 68 -86 119 -136 134 -37 11 -43 11 -62 -8 -28 -28 -37 -90 -27 -181 9 -78
37 -147 114 -277 34 -57 36 -64 32 -130 -8 -124 -89 -278 -202 -384 -108 -100
-256 -177 -438 -226 -112 -30 -176 -61 -189 -91 -9 -20 -5 -40 26 -117 43
-111 56 -179 56 -306 0 -279 -164 -741 -380 -1070 -154 -235 -317 -337 -695
-436 -221 -58 -365 -78 -575 -78 -258 -1 -432 32 -640 122 -164 71 -264 141
-447 314 -186 176 -214 192 -247 145 -30 -42 -20 -80 46 -179 75 -116 92 -153
112 -251 19 -90 21 -283 5 -360 -16 -74 -50 -147 -89 -192 -67 -76 -169 -105
-362 -106 -126 0 -191 -14 -233 -51 -36 -32 -49 -74 -60 -194 -9 -90 -44 -179
-111 -282 -164 -247 -440 -364 -865 -364 -221 0 -339 27 -500 113 -252 134
-372 342 -325 566 8 40 27 94 41 121 27 50 111 151 124 151 4 0 14 -19 21 -43
34 -116 104 -207 158 -207 46 0 57 14 56 72 -1 72 -37 184 -155 480 -144 361
-189 510 -231 763 -19 120 -16 522 5 653 46 285 121 532 241 797 97 214 116
242 221 338 106 98 139 139 130 166 -12 39 -125 54 -193 26 -50 -21 -77 -48
-128 -126 -23 -37 -47 -70 -52 -73 -11 -6 -52 98 -78 196 -33 131 -10 286 68
445 48 99 105 166 167 198 l47 23 105 -54 c306 -158 390 -196 559 -250 108
-35 200 -72 239 -95 67 -40 122 -50 162 -29 27 15 24 34 -12 75 -48 54 -160
118 -315 179 -434 170 -666 315 -830 521 -121 151 -192 326 -213 521 -15 149
-22 744 -10 948 10 189 36 361 70 484 34 121 215 565 296 726 14 28 65 110
112 181 48 72 99 150 113 175 25 43 68 157 68 180 0 16 -58 12 -98 -7 -38 -18
-116 -90 -145 -132 l-16 -24 -53 35 c-261 173 -368 516 -338 1083 13 251 27
327 95 521 87 248 97 417 36 602 -17 50 -31 111 -31 134 0 150 200 296 588
428 168 57 278 79 422 87 188 9 268 -5 525 -92 253 -86 330 -105 438 -105 67
0 77 2 77 18 0 54 -75 97 -241 140 -63 17 -170 46 -239 66 -259 76 -514 113
-672 96 -144 -15 -298 -63 -499 -156 -194 -90 -262 -93 -351 -15 -54 48 -147
183 -188 274 -71 156 -58 301 41 484 49 90 165 275 221 351 55 75 179 203 249
257 30 24 102 69 160 100 139 76 191 116 228 173 58 91 51 152 -18 152 -42 0
-82 -25 -191 -120 -36 -31 -112 -90 -170 -132 -58 -42 -138 -103 -177 -137
-40 -34 -77 -61 -82 -61 -11 0 -42 79 -72 184 -16 53 -22 111 -26 231 -6 182
8 281 57 417 80 218 217 326 560 443 187 64 241 72 350 54z"/>
<path d="M2970 14142 c0 -19 67 -107 142 -190 138 -149 182 -232 214 -399 33
-177 4 -326 -83 -423 -97 -108 -439 -268 -526 -246 -13 3 -62 39 -108 79 -46
40 -98 83 -116 95 -66 46 -116 16 -92 -56 13 -41 73 -133 148 -229 39 -49 57
-85 86 -175 20 -62 47 -131 60 -153 28 -49 78 -87 108 -83 19 3 22 10 25 62 3
63 -16 176 -47 276 l-19 60 22 0 c56 0 248 22 305 36 102 23 184 69 276 155
98 92 113 96 253 79 160 -19 285 10 349 83 48 54 72 170 39 183 -8 3 -51 -6
-96 -20 -83 -27 -208 -49 -336 -61 l-71 -7 8 54 c13 91 10 281 -6 374 -19 105
-39 155 -102 243 -115 161 -269 271 -379 271 -30 0 -54 -4 -54 -8z"/>
<path d="M1367 13103 c-23 -22 -1 -88 69 -203 20 -34 43 -95 58 -157 15 -56
26 -103 26 -105 0 -2 -39 0 -87 5 -171 16 -279 -7 -309 -66 -14 -27 -14 -31 0
-46 15 -14 52 -16 299 -16 249 -1 294 -3 382 -22 224 -48 364 -121 495 -259
125 -131 208 -262 360 -563 99 -198 145 -262 326 -457 117 -126 154 -174 181
-229 43 -92 64 -195 66 -325 2 -157 -32 -252 -156 -435 -91 -135 -91 -168 5
-332 62 -104 78 -151 78 -224 0 -101 -68 -242 -149 -310 -56 -47 -207 -116
-301 -138 -99 -23 -261 -41 -308 -34 -40 7 -80 45 -120 116 -51 90 -135 172
-216 212 -91 45 -140 54 -166 30 -41 -37 -27 -61 103 -189 196 -195 234 -290
221 -557 l-7 -147 -66 -6 c-218 -21 -346 -104 -436 -281 l-37 -72 -89 28
c-185 60 -262 73 -434 73 -143 1 -166 -2 -216 -22 -164 -66 -264 -199 -286
-380 -14 -121 81 -110 206 24 164 175 184 194 243 223 51 26 73 31 133 31 103
0 154 -19 283 -106 93 -63 122 -78 160 -81 67 -6 96 17 179 138 82 120 166
205 244 245 163 83 416 11 609 -173 135 -128 227 -275 285 -453 70 -215 31
-581 -82 -775 -97 -165 -112 -214 -74 -235 47 -25 116 -8 188 46 36 27 44 51
93 259 25 108 30 152 30 254 0 121 0 123 28 151 39 39 144 61 318 67 160 6
235 -4 367 -48 125 -41 232 -97 331 -173 75 -57 92 -66 129 -66 72 0 100 32
153 183 77 215 196 351 356 406 31 11 114 28 185 40 130 21 233 48 233 62 0 4
-17 18 -37 31 -35 21 -49 23 -163 22 -151 -1 -278 -31 -410 -95 -152 -75 -279
-226 -335 -397 -10 -32 -22 -51 -29 -48 -247 107 -416 165 -565 196 -146 30
-240 27 -403 -13 l-135 -34 -7 67 c-19 206 -117 416 -272 580 -144 152 -302
242 -540 305 -8 2 -7 22 2 72 7 37 13 135 14 217 l0 148 36 -7 c67 -12 277 -6
364 10 228 44 424 172 518 338 126 220 98 478 -69 653 l-62 64 39 42 c184 200
277 507 202 670 l-26 57 51 5 c29 2 116 10 193 15 175 14 363 45 469 78 264
83 348 199 262 365 -18 34 -39 64 -47 66 -8 1 -62 -41 -120 -93 -132 -120
-191 -159 -291 -196 -156 -57 -294 -69 -429 -37 -123 29 -294 141 -421 276
-96 101 -164 205 -301 455 -61 111 -145 254 -186 317 -197 298 -439 444 -796
482 -60 7 -103 14 -95 16 84 26 53 166 -70 318 -80 100 -196 176 -224 147z"/>
<path d="M4315 13018 c-36 -33 -39 -40 -43 -99 -2 -47 4 -89 23 -159 47 -173
65 -273 65 -366 0 -104 -12 -144 -89 -304 -83 -173 -88 -247 -19 -305 17 -15
83 -53 147 -85 434 -218 827 -831 927 -1446 26 -159 24 -377 -4 -522 -60 -301
-200 -560 -427 -788 -176 -178 -328 -282 -548 -376 -95 -40 -177 -99 -177
-125 0 -6 9 -21 19 -34 39 -49 177 -21 366 74 184 92 363 241 483 401 37 50
79 99 94 110 27 19 30 19 80 3 29 -9 94 -41 143 -70 l90 -54 102 -149 c145
-212 209 -266 257 -218 48 48 -37 283 -141 388 -94 94 -260 193 -354 211 -62
11 -65 18 -31 61 78 98 155 312 188 524 23 147 23 460 1 553 -32 131 -25 152
83 238 30 24 85 71 123 106 108 100 200 139 369 154 115 10 183 30 198 60 22
39 13 46 -77 63 -263 48 -465 -24 -676 -242 -43 -45 -80 -75 -82 -69 -36 128
-91 273 -136 366 -46 95 -74 135 -149 221 -94 108 -122 150 -135 208 -6 29 -2
38 42 85 42 48 93 128 184 292 15 28 33 80 39 117 8 45 17 69 28 74 10 3 78 9
154 12 171 6 230 -10 368 -98 52 -33 110 -63 128 -66 45 -9 78 16 92 67 25 90
-48 141 -288 200 -154 38 -299 59 -413 59 l-59 0 0 123 c-1 240 -22 315 -125
440 -86 105 -210 189 -300 206 -45 8 -45 8 -45 -21 0 -24 18 -47 93 -121 106
-105 137 -157 171 -286 83 -310 47 -526 -141 -854 -25 -43 -48 -77 -52 -75
-12 5 -261 285 -303 340 -87 115 -104 190 -71 312 22 82 22 360 -1 505 -25
164 -74 317 -118 375 -14 18 -16 18 -53 -16z"/>
<path d="M1373 11778 c-43 -21 -24 -52 64 -108 37 -24 84 -54 104 -67 20 -13
68 -63 107 -111 39 -48 92 -107 117 -132 66 -64 77 -87 59 -129 -8 -19 -42
-73 -76 -120 -69 -97 -100 -165 -128 -284 -51 -220 -27 -454 69 -648 l37 -76
-65 -7 c-36 -3 -94 -6 -128 -6 -82 0 -195 -22 -273 -54 -116 -47 -326 -225
-367 -311 -21 -43 -11 -66 34 -79 42 -12 86 11 175 92 129 118 248 193 359
227 53 17 66 17 305 -4 262 -24 365 -25 372 -4 8 26 -52 71 -104 78 -64 8
-128 31 -147 53 -8 9 -36 98 -62 197 -60 228 -68 337 -36 493 42 200 116 353
191 393 27 15 56 19 136 19 196 0 294 61 294 184 0 84 -9 88 -146 60 -46 -10
-98 -14 -126 -11 -104 13 -240 86 -403 217 -128 103 -219 150 -289 149 -28 0
-61 -5 -73 -11z"/>
<path d="M2238 6784 c-16 -15 -7 -67 28 -177 20 -61 39 -140 42 -174 9 -122
-53 -284 -127 -327 -32 -18 -41 -19 -141 -8 -58 7 -142 12 -185 12 -103 0
-163 -27 -253 -114 -37 -35 -78 -69 -91 -76 -13 -7 -82 -28 -154 -46 -137 -37
-231 -75 -240 -98 -7 -19 19 -41 67 -56 89 -29 238 10 496 127 213 98 237 99
390 28 103 -48 107 -49 220 -53 63 -2 199 1 302 7 371 22 508 63 744 222 139
93 189 145 210 215 17 60 11 142 -12 151 -25 9 -99 -44 -172 -126 -129 -142
-250 -206 -529 -277 -72 -18 -174 -38 -227 -43 -89 -9 -115 -8 -204 5 l-32 5
29 37 c39 49 78 136 91 202 25 133 5 381 -38 454 -36 63 -185 140 -214 110z"/>
<path d="M4417 6521 c-35 -59 -20 -142 78 -441 35 -107 69 -223 76 -258 16
-86 7 -222 -21 -294 -25 -67 -102 -156 -167 -195 -187 -109 -503 -88 -707 48
-57 38 -63 40 -97 30 -23 -7 -62 -37 -105 -79 -182 -180 -427 -284 -794 -338
-164 -24 -414 -15 -562 20 -204 48 -385 120 -518 208 -36 24 -112 88 -170 143
-58 56 -121 107 -139 115 -30 12 -38 12 -70 -6 -95 -50 -25 -147 224 -311 50
-32 129 -81 177 -107 55 -31 90 -58 98 -75 7 -14 15 -83 18 -156 4 -120 3
-135 -18 -183 -28 -66 -68 -100 -206 -179 -202 -115 -225 -140 -175 -196 25
-27 36 -31 94 -35 139 -9 306 52 371 135 60 77 79 141 84 278 2 66 -1 153 -6
193 l-9 73 26 -6 c342 -87 702 -99 1045 -34 228 43 507 157 633 259 68 55 85
60 106 30 17 -25 125 -74 195 -89 85 -18 293 -14 400 8 252 52 420 207 453
416 14 93 5 184 -41 400 -21 99 -46 217 -55 263 -21 104 -57 212 -91 270 -27
46 -91 122 -103 122 -4 0 -14 -13 -24 -29z"/>
</g>
</svg>
