<?xml version="1.0" standalone="no"?>
<!DOCTYPE svg PUBLIC "-//W3C//DTD SVG 20010904//EN"
 "http://www.w3.org/TR/2001/REC-SVG-20010904/DTD/svg10.dtd">
<svg version="1.0" xmlns="http://www.w3.org/2000/svg"
 width="775.000000pt" height="1656.000000pt" viewBox="0 0 775.000000 1656.000000"
 preserveAspectRatio="xMidYMid meet">

<g transform="translate(0.000000,1656.000000) scale(0.100000,-0.100000)"
fill="#000000" stroke="none">
<path d="M6330 16265 c-209 -18 -299 -44 -391 -113 -93 -71 -117 -81 -225 -93
-177 -19 -350 -75 -539 -172 -58 -30 -106 -66 -175 -133 -104 -99 -142 -124
-192 -124 -38 0 -118 37 -238 109 -92 56 -216 99 -365 127 -135 25 -359 15
-480 -20 -190 -56 -344 -149 -489 -294 -112 -113 -196 -230 -262 -367 -65
-136 -94 -240 -101 -370 -5 -91 -3 -110 27 -220 39 -143 43 -223 13 -263 -39
-53 -73 -64 -221 -73 -151 -9 -188 -17 -277 -61 -131 -67 -229 -210 -279 -413
-29 -118 -40 -197 -61 -440 -20 -224 -43 -340 -87 -436 -53 -111 -83 -145
-250 -285 -314 -261 -431 -409 -539 -680 -78 -197 -103 -391 -96 -730 5 -257
8 -283 77 -577 22 -98 38 -187 35 -198 -4 -11 -30 -38 -58 -60 -145 -113 -216
-204 -284 -366 -80 -187 -87 -232 -80 -504 l6 -236 -48 -30 c-68 -43 -217
-244 -287 -388 -98 -203 -170 -447 -181 -617 -11 -174 26 -284 133 -397 34
-36 99 -88 143 -116 44 -27 80 -53 81 -57 0 -4 -25 -40 -55 -79 -235 -304
-353 -665 -315 -965 24 -193 73 -331 167 -473 58 -87 256 -293 442 -460 51
-47 102 -99 112 -115 24 -39 24 -92 0 -231 -22 -124 -19 -160 24 -264 41 -100
42 -140 5 -253 -17 -54 -47 -180 -67 -280 -32 -161 -36 -202 -37 -343 -1 -167
6 -215 51 -360 37 -118 104 -245 252 -479 161 -254 193 -298 294 -403 137
-142 270 -221 490 -287 141 -43 169 -56 196 -95 34 -47 50 -104 76 -270 31
-188 29 -182 126 -404 86 -196 164 -324 237 -387 56 -49 406 -228 518 -266
174 -58 391 -82 581 -65 63 6 189 29 285 52 193 46 330 60 393 39 28 -9 85
-59 217 -192 98 -99 197 -205 220 -236 117 -159 194 -217 467 -351 227 -111
400 -173 553 -198 148 -24 462 -23 582 0 151 31 209 60 308 155 l86 83 60 -7
c57 -6 66 -4 144 34 113 55 222 129 286 193 188 190 260 500 196 837 -8 41
-14 94 -14 118 0 38 -6 51 -40 88 -36 39 -40 48 -40 97 0 78 80 467 139 676
71 256 82 311 88 474 6 162 -6 279 -38 365 -11 29 -55 107 -99 174 -93 143
-104 172 -97 257 4 55 16 87 86 226 107 214 122 271 128 502 7 241 -11 610
-37 758 -29 171 -103 457 -165 645 -30 90 -55 178 -55 196 0 24 18 61 65 132
89 136 100 171 99 324 0 98 -5 142 -22 203 -54 190 -129 336 -243 474 l-60 73
59 69 c124 144 191 264 217 391 14 67 15 156 6 780 -11 763 -10 759 -71 974
-37 132 -202 537 -299 736 -39 80 -71 147 -71 150 0 3 25 16 55 29 177 76 348
396 385 720 15 122 8 742 -9 843 -6 37 -24 113 -40 170 -16 57 -43 167 -61
246 l-32 142 22 35 c12 19 41 46 64 60 52 30 66 59 66 133 -1 161 -62 283
-199 392 l-43 35 57 40 c84 57 218 222 278 340 56 112 61 265 11 413 -27 83
-123 258 -251 457 -35 54 -69 117 -75 138 -13 44 -9 59 66 237 47 115 67 232
67 412 0 223 -32 384 -98 497 -72 126 -154 190 -377 295 -75 36 -157 79 -182
96 -82 55 -104 63 -194 66 -47 1 -159 -4 -250 -11z m310 -171 c91 -31 205 -76
254 -102 99 -51 196 -135 245 -211 43 -67 88 -195 107 -304 22 -127 15 -372
-15 -473 -30 -105 -61 -184 -72 -184 -5 0 -42 27 -82 61 -39 34 -119 95 -177
137 -58 42 -134 101 -170 132 -109 95 -149 120 -191 120 -69 0 -76 -61 -18
-152 37 -57 87 -95 229 -173 128 -70 192 -119 291 -221 87 -91 132 -151 229
-304 132 -209 172 -295 191 -412 20 -125 -32 -276 -150 -436 -128 -172 -210
-188 -420 -82 -100 50 -253 106 -371 137 -208 54 -515 22 -877 -92 -43 -13
-125 -36 -182 -50 -119 -30 -193 -64 -217 -100 -28 -43 -13 -55 66 -55 103 0
195 22 422 101 255 88 338 103 523 96 159 -7 261 -27 437 -87 388 -132 588
-278 588 -428 0 -23 -14 -84 -31 -134 -61 -185 -51 -354 36 -602 68 -194 82
-271 95 -518 30 -584 -82 -929 -356 -1098 l-35 -22 -16 23 c-29 42 -107 114
-145 132 -20 9 -50 17 -68 17 -30 0 -31 -1 -25 -32 16 -73 60 -159 159 -307
57 -86 115 -180 129 -208 80 -157 262 -603 296 -725 35 -123 60 -295 70 -484
12 -201 5 -783 -10 -942 -35 -359 -228 -630 -603 -846 -115 -67 -240 -124
-440 -202 -155 -61 -267 -125 -315 -179 -36 -41 -39 -60 -12 -75 39 -21 95
-11 157 26 34 21 133 61 239 95 172 57 256 95 564 254 l105 53 45 -23 c78 -39
139 -118 191 -245 61 -149 76 -280 45 -400 -25 -96 -66 -200 -77 -194 -5 3
-29 36 -52 73 -51 78 -78 105 -128 126 -68 28 -181 13 -193 -26 -9 -27 24 -68
130 -166 105 -95 124 -124 219 -334 121 -267 197 -517 243 -801 21 -131 24
-533 5 -653 -42 -253 -87 -402 -231 -763 -118 -296 -154 -408 -155 -480 -1
-58 10 -72 56 -72 54 0 124 91 158 208 7 23 17 42 21 42 13 0 97 -101 124
-151 14 -27 33 -81 41 -121 58 -276 -148 -534 -512 -644 -79 -24 -110 -27
-272 -32 -113 -2 -214 0 -265 8 -309 44 -510 155 -641 353 -67 103 -102 192
-111 282 -11 120 -24 162 -60 194 -42 37 -107 51 -233 51 -193 1 -295 30 -362
106 -39 45 -73 118 -89 192 -16 77 -14 270 5 360 20 98 37 135 112 251 66 99
76 137 46 179 -33 47 -61 31 -247 -145 -225 -213 -381 -308 -620 -377 -282
-82 -622 -82 -967 0 -331 78 -538 177 -667 318 -235 257 -483 877 -483 1207 0
127 13 198 56 303 22 56 33 98 30 112 -9 33 -76 69 -175 94 -181 46 -345 128
-452 227 -116 108 -197 261 -206 388 l-4 70 60 105 c67 116 89 177 92 260 3
98 -1 118 -25 146 -22 27 -25 27 -65 16 -51 -16 -103 -66 -137 -135 -52 -103
-92 -153 -145 -182 -67 -36 -115 -31 -253 30 -154 67 -186 60 -208 -46 -36
-172 74 -248 360 -249 102 0 153 -15 172 -50 7 -12 20 -64 31 -116 10 -51 32
-120 48 -153 84 -165 277 -336 466 -412 75 -30 188 -58 231 -59 l22 0 -26 -77
c-34 -105 -42 -314 -17 -448 33 -177 133 -437 295 -770 246 -504 490 -672
1090 -751 186 -24 626 -30 756 -10 187 28 389 108 575 227 42 27 79 49 82 49
4 0 7 -78 7 -172 0 -131 5 -195 20 -266 38 -185 153 -358 278 -419 48 -23 72
-28 157 -31 59 -2 129 2 172 11 40 8 75 12 78 9 3 -3 5 -20 5 -38 0 -44 45
-194 77 -257 114 -226 333 -414 567 -486 161 -50 505 -66 727 -35 121 16 277
54 429 103 52 17 96 29 98 27 2 -2 -2 -33 -8 -67 -19 -106 -50 -158 -156 -259
-107 -101 -188 -158 -407 -281 -161 -90 -217 -139 -217 -189 0 -41 33 -48 118
-25 96 26 236 99 400 209 78 53 147 96 152 96 6 0 10 -18 10 -40 0 -22 19
-133 42 -247 37 -187 42 -223 42 -358 1 -139 -1 -156 -28 -238 -50 -154 -144
-272 -333 -418 -56 -44 -103 -79 -106 -79 -2 0 -6 37 -9 83 -3 64 -10 93 -29
127 -13 25 -31 45 -39 45 -15 0 -21 -11 -89 -156 -64 -138 -168 -215 -368
-275 -73 -22 -114 -27 -240 -31 -178 -6 -293 9 -473 64 -343 103 -445 166
-751 460 -181 174 -239 223 -336 290 l-71 49 126 72 c70 40 165 101 212 135
47 35 136 94 199 132 63 37 143 90 179 117 35 27 65 48 66 46 16 -29 111 -128
159 -165 154 -122 297 -183 448 -191 107 -5 139 4 139 42 0 38 -46 69 -254
171 -215 106 -291 161 -366 263 -76 103 -106 186 -135 370 -27 178 -52 255
-93 295 l-28 27 -24 -42 c-19 -34 -25 -62 -28 -129 -4 -76 0 -102 32 -216 20
-72 36 -148 36 -170 0 -52 -43 -117 -121 -182 -56 -47 -61 -49 -92 -39 -79 28
-282 171 -335 237 -111 138 -139 324 -78 509 15 43 65 146 111 228 111 195
120 241 50 264 -54 18 -90 0 -203 -99 -116 -101 -191 -142 -329 -177 -134 -34
-213 -40 -296 -20 -94 22 -134 21 -142 -4 -12 -37 54 -127 123 -167 46 -27 51
-28 187 -26 108 2 149 7 179 20 37 16 39 16 52 -2 8 -10 14 -28 14 -38 0 -11
11 -43 24 -71 13 -28 39 -116 56 -196 41 -184 59 -231 120 -318 91 -130 194
-213 300 -243 25 -7 48 -15 53 -19 19 -16 -159 -146 -300 -218 -501 -257
-1202 -254 -1647 6 -165 97 -328 312 -410 542 -24 65 -136 502 -136 528 0 5
75 12 173 15 150 5 303 25 408 52 l26 6 5 -118 c8 -178 56 -287 170 -387 124
-109 241 -139 538 -140 194 -1 208 0 251 22 55 27 75 62 59 102 -19 47 -48 53
-280 61 -292 9 -367 34 -483 158 -70 76 -110 156 -115 232 -7 100 26 139 278
326 124 92 252 216 279 271 16 30 21 57 19 90 -3 44 -5 47 -30 45 -40 -3 -105
-51 -233 -172 -327 -311 -550 -404 -963 -402 -289 1 -517 65 -726 205 -73 49
-195 162 -259 241 -111 136 -277 442 -337 622 -97 291 -91 584 16 854 l15 35
85 -29 c202 -67 490 -104 602 -78 93 23 136 94 67 113 -16 4 -106 12 -200 17
-220 12 -289 36 -397 139 -151 144 -196 303 -149 533 27 135 33 208 18 249
-11 31 -22 39 -121 82 -165 72 -211 103 -331 223 -154 155 -238 303 -297 525
-29 110 -36 311 -14 420 21 108 70 267 106 346 27 59 163 271 184 287 6 4 45
6 86 4 59 -4 99 -14 187 -50 137 -55 189 -67 300 -67 67 0 96 -5 129 -21 53
-25 215 -192 310 -319 39 -52 111 -149 160 -215 256 -345 481 -477 809 -479
133 0 195 14 195 44 0 47 -128 107 -347 164 -92 24 -193 54 -224 65 -80 30
-166 88 -233 157 -61 62 -317 431 -348 501 -10 23 -23 76 -28 118 -11 84 -21
109 -53 129 -40 26 -98 27 -220 6 -147 -25 -165 -25 -263 0 -91 23 -321 134
-435 210 -141 94 -257 227 -293 338 -49 148 -13 357 101 590 98 202 263 371
326 335 8 -4 37 -37 63 -73 101 -139 132 -169 220 -210 95 -46 91 -39 124
-223 24 -139 31 -154 163 -352 156 -233 232 -300 353 -312 90 -10 127 34 90
105 -19 36 -74 87 -166 154 -99 73 -137 113 -193 206 -172 286 -164 637 21
1007 62 126 91 164 213 291 106 110 130 147 111 166 -16 16 -113 12 -156 -6
-85 -35 -242 -237 -325 -418 -39 -84 -109 -290 -131 -385 -7 -31 -17 -53 -25
-53 -20 0 -108 73 -147 122 -81 100 -139 249 -158 408 -21 165 13 357 89 515
46 93 155 219 228 262 55 32 70 26 133 -58 87 -117 187 -173 251 -139 38 21
24 58 -49 129 -83 80 -120 134 -177 254 -168 355 -226 749 -170 1137 19 131
57 257 115 377 88 185 155 268 427 527 219 208 261 221 436 137 155 -74 197
-77 217 -17 10 30 6 45 -30 135 -47 120 -59 139 -85 147 -36 12 -103 66 -114
93 -8 18 -8 108 -2 306 8 229 13 296 31 365 63 254 213 402 471 465 123 30
253 43 263 27 4 -7 -10 -58 -30 -114 -20 -57 -40 -119 -45 -138 -14 -55 -31
-384 -22 -421 17 -64 87 -87 114 -38 6 11 17 86 25 167 27 273 84 469 119 412
3 -5 31 -17 61 -26 103 -30 133 1 189 196 21 76 43 133 57 147 36 39 245 139
318 152 101 19 159 41 176 66 30 45 -6 85 -75 85 -91 0 -320 -87 -580 -221
-95 -49 -175 -89 -177 -89 -7 0 -73 219 -88 292 -21 100 -20 232 1 315 46 185
256 493 430 634 218 175 488 221 788 134 116 -34 288 -108 354 -154 32 -21 76
-48 99 -60 23 -12 42 -28 42 -36 0 -7 -21 -54 -46 -103 -42 -83 -48 -90 -87
-102 -25 -7 -88 -12 -154 -11 -116 2 -152 -7 -183 -44 -44 -53 166 -107 317
-81 34 6 45 4 61 -12 34 -34 47 -144 44 -377 -3 -270 3 -330 33 -361 14 -13
36 -24 51 -24 37 0 88 56 104 116 15 53 9 123 -31 379 -14 92 -22 188 -23 280
0 122 3 149 23 205 79 225 276 406 566 519 103 41 312 98 321 88 3 -3 -13 -42
-36 -86 -57 -114 -97 -240 -110 -346 -13 -104 -25 -127 -83 -156 -87 -44 -121
-96 -139 -213 -20 -132 26 -298 104 -373 97 -93 231 -111 515 -69 95 14 182
30 193 36 32 17 23 61 -15 79 -26 12 -41 12 -110 1 -44 -8 -114 -14 -155 -15
-65 0 -84 4 -142 33 -159 78 -215 232 -118 321 52 48 66 85 85 229 46 355 206
629 429 737 148 71 247 69 486 -11z"/>
<path d="M4672 14125 c-158 -73 -330 -279 -367 -438 -21 -88 -30 -317 -18
-410 l10 -69 -71 7 c-128 12 -253 34 -336 61 -45 14 -88 23 -96 20 -8 -3 -14
-19 -14 -38 0 -170 155 -258 402 -228 139 17 155 13 252 -78 51 -48 109 -90
151 -111 78 -38 211 -67 356 -76 l96 -7 -29 -101 c-30 -107 -45 -227 -34 -271
8 -32 36 -34 77 -5 42 30 74 91 114 217 31 97 43 121 103 199 119 153 154 222
132 263 -24 45 -68 25 -200 -90 -97 -85 -114 -94 -161 -86 -68 11 -159 46
-284 109 -212 108 -282 202 -292 392 -4 68 0 114 16 189 34 160 70 226 210
379 76 84 141 171 141 189 0 19 -106 7 -158 -17z"/>
<path d="M6319 13062 c-78 -60 -145 -140 -193 -233 -52 -103 -48 -172 13 -191
8 -2 -35 -9 -95 -16 -327 -34 -561 -162 -742 -406 -81 -107 -105 -148 -245
-403 -174 -316 -265 -438 -425 -564 -227 -181 -422 -217 -697 -128 -109 35
-178 79 -315 204 -58 52 -112 94 -120 93 -8 -2 -29 -32 -47 -66 -86 -167 -1
-284 267 -366 113 -34 290 -63 463 -77 78 -5 165 -13 194 -15 l51 -5 -26 -57
c-75 -163 18 -470 202 -670 l39 -43 -55 -57 c-112 -114 -151 -212 -151 -372 0
-83 5 -119 22 -170 103 -297 389 -471 777 -471 67 0 138 3 158 6 l36 7 0 -148
c1 -82 7 -180 14 -217 9 -50 10 -70 2 -72 -6 -2 -45 -13 -86 -25 -382 -110
-691 -474 -726 -854 l-6 -73 -136 34 c-99 24 -159 33 -220 33 -156 0 -379 -59
-636 -170 -65 -27 -119 -50 -121 -50 -2 0 -11 24 -20 53 -56 170 -183 321
-335 396 -132 64 -259 94 -410 95 -114 1 -128 -1 -162 -22 -21 -13 -38 -27
-38 -31 0 -14 102 -41 230 -62 211 -33 293 -71 393 -178 61 -67 111 -158 158
-290 43 -122 77 -161 142 -161 42 0 55 7 133 66 99 76 206 132 331 173 132 44
207 54 367 48 174 -6 279 -28 318 -67 28 -28 28 -30 28 -151 0 -102 5 -146 30
-254 49 -208 57 -232 93 -259 72 -54 141 -71 188 -46 38 21 26 61 -69 225 -80
140 -122 325 -122 536 0 141 23 244 85 376 122 259 320 443 553 513 102 31
214 25 291 -14 78 -40 160 -123 242 -243 83 -122 114 -146 181 -140 38 3 67
18 160 81 129 87 180 106 283 106 60 0 82 -5 132 -30 57 -29 87 -56 244 -224
66 -70 121 -106 162 -106 50 0 59 41 32 145 -47 181 -156 290 -332 331 -138
33 -368 7 -592 -65 l-89 -28 -37 72 c-90 177 -218 260 -436 281 l-66 6 -7 143
c-14 275 24 368 230 569 121 119 135 144 94 181 -26 24 -75 15 -166 -30 -81
-40 -165 -122 -216 -212 -40 -71 -80 -109 -120 -116 -47 -7 -209 11 -306 33
-100 24 -217 76 -287 129 -126 95 -197 290 -151 417 7 22 41 88 75 149 86 154
85 176 -19 330 -60 88 -103 174 -126 251 -23 74 -22 237 0 344 29 136 67 198
230 374 181 195 227 259 326 457 152 301 235 433 359 562 134 140 265 209 493
259 93 21 130 23 385 23 247 0 284 2 299 16 14 15 14 19 0 46 -30 59 -138 82
-308 66 -49 -5 -88 -7 -88 -5 0 2 12 49 26 105 19 75 40 127 80 197 42 74 54
103 52 130 -5 55 -40 53 -119 -8z"/>
<path d="M3416 13008 c-37 -64 -74 -182 -97 -315 -28 -157 -31 -447 -6 -539
33 -122 16 -197 -71 -312 -42 -55 -291 -335 -303 -340 -18 -7 -149 247 -189
366 -60 179 -61 351 -5 562 35 130 66 181 172 287 75 74 93 97 93 121 l0 29
-46 -8 c-144 -27 -352 -222 -401 -375 -10 -32 -17 -108 -20 -221 l-6 -173 -57
0 c-113 0 -258 -21 -412 -59 -240 -59 -313 -110 -288 -200 14 -51 47 -76 92
-67 18 3 76 33 128 66 138 88 197 104 368 98 76 -3 144 -9 154 -12 11 -5 20
-29 28 -73 6 -37 18 -80 27 -97 51 -100 163 -277 200 -317 24 -25 43 -51 43
-57 0 -6 -9 -35 -20 -64 -14 -37 -49 -86 -116 -163 -80 -91 -106 -130 -155
-229 -46 -94 -106 -256 -135 -363 -1 -6 -40 27 -86 74 -207 213 -413 286 -669
237 -46 -9 -87 -18 -91 -20 -4 -3 -1 -18 7 -33 20 -40 76 -59 203 -70 169 -15
261 -53 369 -154 38 -34 91 -80 118 -102 112 -88 119 -107 91 -230 -33 -142
-29 -434 10 -637 35 -183 104 -360 176 -452 34 -43 31 -50 -31 -61 -94 -18
-263 -118 -355 -212 -104 -105 -189 -339 -140 -387 48 -48 112 6 257 218 l102
149 90 54 c50 29 114 61 143 70 50 16 53 16 80 -3 15 -11 48 -49 74 -85 137
-186 306 -328 513 -431 118 -59 218 -92 283 -92 45 -1 57 3 73 23 10 13 19 28
19 34 0 23 -80 84 -145 111 -237 99 -396 205 -570 380 -193 193 -309 377 -389
617 -53 156 -70 268 -69 449 0 298 75 594 225 894 193 386 445 669 719 806
139 70 175 99 189 150 15 56 -1 113 -78 275 l-66 140 -4 105 c-4 111 9 189 63
389 41 153 29 232 -42 278 -20 14 -23 12 -47 -29z"/>
<path d="M6234 11755 c-38 -19 -114 -71 -169 -115 -160 -128 -295 -202 -397
-216 -24 -3 -81 1 -129 10 -144 27 -149 25 -149 -60 0 -123 98 -184 294 -184
80 0 109 -4 136 -19 112 -59 220 -378 207 -611 -6 -106 -87 -441 -114 -472
-19 -22 -83 -45 -147 -53 -52 -7 -112 -52 -104 -78 7 -21 110 -20 374 4 l251
22 65 -22 c97 -32 222 -111 328 -206 109 -98 149 -121 193 -109 44 13 55 36
35 76 -41 88 -251 266 -368 314 -78 32 -191 54 -273 54 -34 0 -92 3 -128 6
l-66 7 33 66 c101 203 127 438 74 660 -28 118 -59 186 -128 282 -34 47 -68
101 -76 120 -17 42 -7 65 54 124 23 22 77 83 120 135 43 52 97 106 119 120
178 108 200 130 161 162 -38 31 -115 24 -196 -17z"/>
<path d="M5461 6768 c-70 -34 -117 -86 -136 -148 -22 -70 -32 -311 -16 -394
13 -71 51 -158 92 -208 l29 -37 -32 -5 c-89 -13 -115 -14 -204 -5 -53 5 -155
25 -227 43 -279 71 -400 135 -529 277 -74 82 -147 135 -172 126 -21 -8 -29
-81 -16 -137 18 -77 66 -129 199 -219 187 -126 296 -173 484 -205 117 -21 434
-39 577 -34 113 4 117 5 220 53 153 71 177 70 390 -28 258 -117 407 -156 496
-127 48 15 74 37 67 55 -10 27 -145 78 -303 115 -79 18 -107 35 -182 106 -90
87 -150 114 -253 114 -43 0 -127 -5 -185 -12 -100 -11 -109 -10 -141 8 -74 43
-136 205 -127 327 3 34 22 113 42 176 20 63 36 128 34 145 -3 26 -7 31 -33 34
-16 1 -50 -7 -74 -20z"/>
<path d="M3323 6518 c-81 -86 -124 -192 -172 -428 -17 -80 -41 -197 -55 -261
-32 -155 -40 -249 -27 -334 33 -209 201 -364 453 -416 107 -22 315 -26 400 -8
70 15 178 64 195 89 21 30 38 25 106 -30 80 -65 251 -149 403 -199 382 -125
847 -135 1275 -26 l26 6 -9 -73 c-16 -123 -5 -304 21 -370 60 -153 196 -233
399 -233 93 0 94 0 122 32 50 56 36 73 -155 186 -162 95 -193 121 -223 185
-23 51 -24 62 -19 180 2 70 10 141 16 158 9 23 34 43 114 89 367 209 498 349
386 409 -32 18 -40 18 -70 6 -18 -8 -81 -59 -139 -115 -58 -55 -134 -119 -170
-143 -133 -88 -314 -160 -518 -208 -148 -35 -398 -44 -562 -20 -367 54 -614
159 -792 338 -45 44 -81 71 -106 79 -37 11 -41 10 -91 -26 -111 -80 -314 -133
-468 -121 -152 11 -255 57 -341 151 -65 71 -93 142 -99 257 -7 113 4 170 82
408 98 299 113 382 78 441 -10 16 -20 29 -23 29 -3 0 -20 -15 -37 -32z"/>
</g>
</svg>
